/* XPM */
static char *spawn_cross[] = {
/* columns rows colors chars-per-pixel */
"64 64 47 1 ",
"  c #2C2C2C",
". c #3E2424",
"X c #302929",
"o c #3A2C2C",
"O c #730C0C",
"+ c #432424",
"@ c #4C2B2B",
"# c #5C2525",
"$ c #522B2B",
"% c #5A2D2D",
"& c #573030",
"* c #612222",
"= c #753535",
"- c #830B0B",
"; c #8A0C0C",
": c #950D0D",
"> c #9C0D0D",
", c #A40E0E",
"< c #AC0E0E",
"1 c #B50F0F",
"2 c #BA0F0F",
"3 c #BC1010",
"4 c #C20F0F",
"5 c #CD0E0E",
"6 c #CC1212",
"7 c #D41212",
"8 c #DC1313",
"9 c #D01919",
"0 c #E60E0E",
"q c #EC1717",
"w c #EB1919",
"e c #CE2D2D",
"r c #DC2525",
"t c #D12E2E",
"y c #D63232",
"u c #D93333",
"i c #D83838",
"p c #EC2626",
"a c #F42929",
"s c #FA2F2F",
"d c #E33636",
"f c #E73838",
"g c #EA3939",
"h c #FD3333",
"j c #FE3E3E",
"k c #E34949",
"l c #F25959",
/* pixels */
"                                                                ",
"                                                                ",
"                                                                ",
"                                                                ",
"                                                  o             ",
"              &=                                  =*            ",
"             okl%                                %lko           ",
"            oujjf%                              %gkjuo          ",
"           oujq0sf%                            %fh0qjuo         ",
"          ouhw88qsf%                          %gh088whuo        ",
"         oujq8q88qhg%o                       %gaq8q87qjuo       ",
"        oihw880888qaf%                      %fhq8088q8whio      ",
"       #rsw7q8q8q88qhg%                    %ghq7q88q888whr$     ",
"       *178888888888qhd%                  %faq888888q88071*     ",
"        +>6q8888q8887qsd%                %faq78q8q8888q6>+      ",
"         +,588q8888887qhd$              %dhq78888888886,+       ",
"          +>68888888787wsd%            %fh888878888886>+        ",
"          o+>688888888778sf%          %fs878888878886,+         ",
"            +>678888888878sd%        %ds888898888886>+          ",
"             +>689877787888sd%      $ds877787887776>+           ",
"              +>677788778778sd%    %dh778878787786>+            ",
"               +:687777877777sd$  $dh777777777886:+             ",
"                +>677777787777sd@@ds877778777776:+              ",
"                 +:688977777777slls777777777776:+               ",
"                  +:377777777767pp777777777776>+                ",
"                   +:677766777765567755776772:+                 ",
"                    +:6776767667677767767766:+                  ",
"                     o:37767676766667676673:+                   ",
"                      +:277667667666676673:+                    ",
"                       +:2666666666666673:+                     ",
"                        .<66666666666666<o                      ",
"                        @6766666666666679@                      ",
"                       $ya66366666636636au$                     ",
"                      $ta6266663666666646ay$                    ",
"                     $ua646462663366466446au$                   ",
"                    $ua62663664666636636426ay$                  ",
"                   $ta6243633633266336366226at$                 ",
"                  $ta426662663663636636363626at$                ",
"                 $ta622642624661::144222266426at$               ",
"                $ta42622663434<;..;<66266224424at$              ",
"               $ta424334626621;+  .-163223363614ae$             ",
"              $ep42362632222<;+    .;<36622226224ae$            ",
"             $ta22633323264<;.      .;<62233333322ae$           ",
"            +ta22222333224<-+        .-<36333333323pe@          ",
"           $ep31333333232<;+          +-<33333332312pe$o        ",
"          $ep31331333333<-+            .;<32331333312pe+        ",
"         @ep31331331133<-+              +-<23313133312pe$       ",
"        @ep11113112122<-.                .-<22122211112pe$      ",
"       #3r21112121222,-.                  +-<22113111112w1*     ",
"       +->1112111112<-.                    .-,2111111111>O+     ",
"        .O:11111112<-.                      .-,21111111>O       ",
"         XO>111112,O.X                       .-,111111>Oo       ",
"          XO>1111,-.                          +-,111<>OX        ",
"            O>11<O+X                           .-,11>O          ",
"             O:,-.                              .-,>O.          ",
"             .OO.                                .OO            ",
"              .+                                  +o            ",
"               X                                                ",
"                                                                ",
"                                                                ",
"                                                                ",
"                                                                ",
"                                                                ",
"                                                                "
};
